<svg width="400" height="399" viewBox="0 0 400 399" fill="none" xmlns="http://www.w3.org/2000/svg">
<path d="M0.466731 66.871C4.27573 36.7467 43.4257 -4.19533 74.4961 0.347672L74.4464 0.298017C104.684 6.04402 128.62 58.087 142.117 81.4883C151.68 98.4673 145.47 115.67 136.55 122.929C124.517 132.628 105.7 146.01 109.648 159.447C116.667 183.333 200 266.667 240.987 290.357C256.5 299.323 267.75 275.673 277.357 263.557C284.337 254.237 301.553 248.667 318.493 257.867C343.793 272.6 367.627 289.723 389.667 309C400.673 318.2 403.257 331.797 395.63 346.167C382.197 371.477 343.343 404.853 315.14 398.07C265.88 386.227 66.6667 309 2.67773 85.267C-0.920937 74.6827 -0.0149359 70.6813 0.466731 66.871Z" fill="white"/>
</svg>
